<mxfile host="app.diagrams.net" agent="Mozilla/5.0 (Windows NT 10.0; Win64; x64) AppleWebKit/537.36 (KHTML, like Gecko) Chrome/141.0.0.0 Safari/537.36" version="28.2.8">
  <diagram name="Page-1" id="7dh4rHxReaVfvul1XCR6">
    <mxGraphModel dx="3096" dy="1323" grid="1" gridSize="10" guides="1" tooltips="1" connect="1" arrows="1" fold="1" page="1" pageScale="1" pageWidth="850" pageHeight="1100" background="none" math="0" shadow="0">
      <root>
        <object label="" id="0">
          <mxCell />
        </object>
        <mxCell id="1" parent="0" />
        <mxCell id="iSWgA_2Dmbg9d9rFps_H-27" value="" style="rounded=1;whiteSpace=wrap;html=1;" parent="1" vertex="1">
          <mxGeometry x="-190" y="10" width="550" height="840" as="geometry" />
        </mxCell>
        <mxCell id="iSWgA_2Dmbg9d9rFps_H-1" value="" style="rounded=1;whiteSpace=wrap;html=1;" parent="1" vertex="1">
          <mxGeometry x="-320" y="890" width="350" height="550" as="geometry" />
        </mxCell>
        <mxCell id="H7PCksEcClA0gk95c4nI-1" value="initialize" style="rounded=1;whiteSpace=wrap;html=1;" parent="1" vertex="1">
          <mxGeometry x="-210" y="990" width="120" height="60" as="geometry" />
        </mxCell>
        <mxCell id="H7PCksEcClA0gk95c4nI-2" style="edgeStyle=orthogonalEdgeStyle;rounded=0;orthogonalLoop=1;jettySize=auto;html=1;exitX=0.5;exitY=1;exitDx=0;exitDy=0;entryX=0.5;entryY=0;entryDx=0;entryDy=0;" parent="1" source="H7PCksEcClA0gk95c4nI-3" target="H7PCksEcClA0gk95c4nI-12" edge="1">
          <mxGeometry relative="1" as="geometry" />
        </mxCell>
        <mxCell id="H7PCksEcClA0gk95c4nI-3" value="idle" style="rounded=1;whiteSpace=wrap;html=1;" parent="1" vertex="1">
          <mxGeometry x="-210" y="1100" width="120" height="60" as="geometry" />
        </mxCell>
        <mxCell id="H7PCksEcClA0gk95c4nI-15" style="edgeStyle=orthogonalEdgeStyle;rounded=0;orthogonalLoop=1;jettySize=auto;html=1;exitX=0.5;exitY=1;exitDx=0;exitDy=0;" parent="1" edge="1">
          <mxGeometry relative="1" as="geometry">
            <mxPoint x="-90" y="1400" as="targetPoint" />
            <Array as="points">
              <mxPoint x="-150" y="1390" />
              <mxPoint x="-150" y="1390" />
            </Array>
            <mxPoint x="-150" y="1320" as="sourcePoint" />
          </mxGeometry>
        </mxCell>
        <mxCell id="H7PCksEcClA0gk95c4nI-16" style="edgeStyle=orthogonalEdgeStyle;rounded=0;orthogonalLoop=1;jettySize=auto;html=1;exitX=0;exitY=0.5;exitDx=0;exitDy=0;entryX=0;entryY=0.5;entryDx=0;entryDy=0;" parent="1" source="H7PCksEcClA0gk95c4nI-4" target="H7PCksEcClA0gk95c4nI-3" edge="1">
          <mxGeometry relative="1" as="geometry" />
        </mxCell>
        <mxCell id="H7PCksEcClA0gk95c4nI-4" value="sound detected" style="rounded=1;whiteSpace=wrap;html=1;" parent="1" vertex="1">
          <mxGeometry x="-210" y="1310" width="120" height="60" as="geometry" />
        </mxCell>
        <mxCell id="H7PCksEcClA0gk95c4nI-5" value="" style="endArrow=classic;html=1;rounded=0;exitX=0.5;exitY=1;exitDx=0;exitDy=0;entryX=0.5;entryY=0;entryDx=0;entryDy=0;" parent="1" source="H7PCksEcClA0gk95c4nI-1" target="H7PCksEcClA0gk95c4nI-3" edge="1">
          <mxGeometry width="50" height="50" relative="1" as="geometry">
            <mxPoint x="-240" y="1210" as="sourcePoint" />
            <mxPoint x="-190" y="1160" as="targetPoint" />
          </mxGeometry>
        </mxCell>
        <mxCell id="H7PCksEcClA0gk95c4nI-6" value="&lt;font style=&quot;font-size: 18px;&quot;&gt;Sound board&lt;/font&gt;" style="text;html=1;whiteSpace=wrap;strokeColor=none;fillColor=none;align=center;verticalAlign=middle;rounded=0;" parent="1" vertex="1">
          <mxGeometry x="-250" y="900" width="200" height="30" as="geometry" />
        </mxCell>
        <mxCell id="H7PCksEcClA0gk95c4nI-7" value="clear all data" style="text;html=1;whiteSpace=wrap;strokeColor=none;fillColor=none;align=center;verticalAlign=middle;rounded=0;" parent="1" vertex="1">
          <mxGeometry x="-100" y="1060" width="60" height="30" as="geometry" />
        </mxCell>
        <mxCell id="H7PCksEcClA0gk95c4nI-8" value="send signal to input/output board" style="text;html=1;whiteSpace=wrap;strokeColor=none;fillColor=none;align=center;verticalAlign=middle;rounded=0;" parent="1" vertex="1">
          <mxGeometry x="-90" y="1380" width="80" height="30" as="geometry" />
        </mxCell>
        <mxCell id="H7PCksEcClA0gk95c4nI-9" style="edgeStyle=orthogonalEdgeStyle;rounded=0;orthogonalLoop=1;jettySize=auto;html=1;exitX=0.5;exitY=1;exitDx=0;exitDy=0;" parent="1" source="H7PCksEcClA0gk95c4nI-10" edge="1">
          <mxGeometry relative="1" as="geometry">
            <mxPoint x="-150" y="999" as="targetPoint" />
          </mxGeometry>
        </mxCell>
        <mxCell id="H7PCksEcClA0gk95c4nI-10" value="start" style="text;html=1;whiteSpace=wrap;strokeColor=none;fillColor=none;align=center;verticalAlign=middle;rounded=0;" parent="1" vertex="1">
          <mxGeometry x="-180" y="922" width="60" height="30" as="geometry" />
        </mxCell>
        <mxCell id="H7PCksEcClA0gk95c4nI-11" style="edgeStyle=orthogonalEdgeStyle;rounded=0;orthogonalLoop=1;jettySize=auto;html=1;exitX=0.5;exitY=1;exitDx=0;exitDy=0;entryX=0.5;entryY=0;entryDx=0;entryDy=0;" parent="1" source="H7PCksEcClA0gk95c4nI-12" target="H7PCksEcClA0gk95c4nI-4" edge="1">
          <mxGeometry relative="1" as="geometry" />
        </mxCell>
        <mxCell id="H7PCksEcClA0gk95c4nI-12" value="collect environmental data" style="rounded=1;whiteSpace=wrap;html=1;" parent="1" vertex="1">
          <mxGeometry x="-210" y="1200" width="120" height="60" as="geometry" />
        </mxCell>
        <mxCell id="H7PCksEcClA0gk95c4nI-13" value="monitor sound" style="text;html=1;whiteSpace=wrap;strokeColor=none;fillColor=none;align=center;verticalAlign=middle;rounded=0;" parent="1" vertex="1">
          <mxGeometry x="-90" y="1160" width="60" height="30" as="geometry" />
        </mxCell>
        <mxCell id="H7PCksEcClA0gk95c4nI-14" value="" style="shape=waypoint;sketch=0;size=6;pointerEvents=1;points=[];fillColor=none;resizable=0;rotatable=0;perimeter=centerPerimeter;snapToPoint=1;" parent="1" vertex="1">
          <mxGeometry x="-160" y="940" width="20" height="20" as="geometry" />
        </mxCell>
        <mxCell id="H7PCksEcClA0gk95c4nI-19" value="continuous loop" style="text;html=1;whiteSpace=wrap;strokeColor=none;fillColor=none;align=center;verticalAlign=middle;rounded=0;" parent="1" vertex="1">
          <mxGeometry x="-300" y="1230" width="60" height="30" as="geometry" />
        </mxCell>
        <mxCell id="iSWgA_2Dmbg9d9rFps_H-2" value="" style="ellipse;html=1;shape=startState;fillColor=#000000;strokeColor=#ff0000;" parent="1" vertex="1">
          <mxGeometry x="60" y="40" width="30" height="30" as="geometry" />
        </mxCell>
        <mxCell id="iSWgA_2Dmbg9d9rFps_H-3" value="" style="edgeStyle=orthogonalEdgeStyle;html=1;verticalAlign=bottom;endArrow=open;endSize=8;strokeColor=#ff0000;rounded=0;" parent="1" source="iSWgA_2Dmbg9d9rFps_H-2" edge="1">
          <mxGeometry relative="1" as="geometry">
            <mxPoint x="75" y="130" as="targetPoint" />
          </mxGeometry>
        </mxCell>
        <mxCell id="iSWgA_2Dmbg9d9rFps_H-4" value="Start/&lt;div&gt;Power On&lt;/div&gt;" style="text;html=1;whiteSpace=wrap;strokeColor=none;fillColor=none;align=center;verticalAlign=middle;rounded=0;" parent="1" vertex="1">
          <mxGeometry x="45" y="10" width="60" height="30" as="geometry" />
        </mxCell>
        <mxCell id="iSWgA_2Dmbg9d9rFps_H-5" value="Initialize System" style="rounded=1;whiteSpace=wrap;html=1;arcSize=40;fontColor=#000000;fillColor=#ffffc0;strokeColor=#ff0000;" parent="1" vertex="1">
          <mxGeometry x="15" y="140" width="120" height="40" as="geometry" />
        </mxCell>
        <mxCell id="iSWgA_2Dmbg9d9rFps_H-6" value="" style="edgeStyle=orthogonalEdgeStyle;html=1;verticalAlign=bottom;endArrow=open;endSize=8;strokeColor=#ff0000;rounded=0;" parent="1" source="iSWgA_2Dmbg9d9rFps_H-5" edge="1">
          <mxGeometry relative="1" as="geometry">
            <mxPoint x="75" y="240" as="targetPoint" />
          </mxGeometry>
        </mxCell>
        <mxCell id="iSWgA_2Dmbg9d9rFps_H-7" value="Audio Process&amp;nbsp;" style="rounded=1;whiteSpace=wrap;html=1;arcSize=40;fontColor=#000000;fillColor=#ffffc0;strokeColor=#ff0000;" parent="1" vertex="1">
          <mxGeometry x="-105" y="240" width="120" height="40" as="geometry" />
        </mxCell>
        <mxCell id="iSWgA_2Dmbg9d9rFps_H-8" value="" style="edgeStyle=orthogonalEdgeStyle;html=1;verticalAlign=bottom;endArrow=open;endSize=8;strokeColor=#ff0000;rounded=0;exitX=0.5;exitY=1;exitDx=0;exitDy=0;" parent="1" source="iSWgA_2Dmbg9d9rFps_H-7" edge="1">
          <mxGeometry relative="1" as="geometry">
            <mxPoint x="40" y="330" as="targetPoint" />
          </mxGeometry>
        </mxCell>
        <mxCell id="iSWgA_2Dmbg9d9rFps_H-9" value="Visual Process" style="rounded=1;whiteSpace=wrap;html=1;arcSize=40;fontColor=#000000;fillColor=#ffffc0;strokeColor=#ff0000;" parent="1" vertex="1">
          <mxGeometry x="135" y="240" width="120" height="40" as="geometry" />
        </mxCell>
        <mxCell id="iSWgA_2Dmbg9d9rFps_H-10" value="" style="edgeStyle=orthogonalEdgeStyle;html=1;verticalAlign=bottom;endArrow=open;endSize=8;strokeColor=#ff0000;rounded=0;exitX=0.5;exitY=1;exitDx=0;exitDy=0;" parent="1" source="iSWgA_2Dmbg9d9rFps_H-9" edge="1">
          <mxGeometry relative="1" as="geometry">
            <mxPoint x="120" y="330" as="targetPoint" />
          </mxGeometry>
        </mxCell>
        <mxCell id="iSWgA_2Dmbg9d9rFps_H-14" value="" style="shape=line;html=1;strokeWidth=6;strokeColor=#ff0000;" parent="1" vertex="1">
          <mxGeometry x="-25" y="340" width="200" height="20" as="geometry" />
        </mxCell>
        <mxCell id="iSWgA_2Dmbg9d9rFps_H-15" value="" style="edgeStyle=orthogonalEdgeStyle;html=1;verticalAlign=bottom;endArrow=open;endSize=8;strokeColor=#ff0000;rounded=0;" parent="1" source="iSWgA_2Dmbg9d9rFps_H-14" edge="1">
          <mxGeometry relative="1" as="geometry">
            <mxPoint x="75" y="390" as="targetPoint" />
          </mxGeometry>
        </mxCell>
        <mxCell id="iSWgA_2Dmbg9d9rFps_H-16" value="Information collected in Main Hub" style="text;html=1;whiteSpace=wrap;strokeColor=none;fillColor=none;align=center;verticalAlign=middle;rounded=0;" parent="1" vertex="1">
          <mxGeometry x="-25" y="322" width="205" height="30" as="geometry" />
        </mxCell>
        <mxCell id="iSWgA_2Dmbg9d9rFps_H-17" value="Trigger&lt;div&gt;&amp;nbsp;Light&lt;/div&gt;" style="rhombus;whiteSpace=wrap;html=1;fontColor=#000000;fillColor=#ffffc0;strokeColor=#ff0000;" parent="1" vertex="1">
          <mxGeometry x="40" y="410" width="80" height="40" as="geometry" />
        </mxCell>
        <mxCell id="iSWgA_2Dmbg9d9rFps_H-18" value="no" style="edgeStyle=orthogonalEdgeStyle;html=1;align=left;verticalAlign=bottom;endArrow=open;endSize=8;strokeColor=#ff0000;rounded=0;" parent="1" source="iSWgA_2Dmbg9d9rFps_H-17" edge="1">
          <mxGeometry x="-1" relative="1" as="geometry">
            <mxPoint x="190" y="350" as="targetPoint" />
            <Array as="points">
              <mxPoint x="330" y="430" />
              <mxPoint x="330" y="350" />
            </Array>
          </mxGeometry>
        </mxCell>
        <mxCell id="iSWgA_2Dmbg9d9rFps_H-19" value="yes" style="edgeStyle=orthogonalEdgeStyle;html=1;align=left;verticalAlign=top;endArrow=open;endSize=8;strokeColor=#ff0000;rounded=0;" parent="1" source="iSWgA_2Dmbg9d9rFps_H-17" edge="1">
          <mxGeometry x="-1" relative="1" as="geometry">
            <mxPoint x="80" y="510" as="targetPoint" />
          </mxGeometry>
        </mxCell>
        <mxCell id="iSWgA_2Dmbg9d9rFps_H-20" value="Check Settings&amp;nbsp;" style="rounded=1;whiteSpace=wrap;html=1;arcSize=40;fontColor=#000000;fillColor=#ffffc0;strokeColor=#ff0000;" parent="1" vertex="1">
          <mxGeometry x="20" y="530" width="120" height="40" as="geometry" />
        </mxCell>
        <mxCell id="iSWgA_2Dmbg9d9rFps_H-21" value="" style="edgeStyle=orthogonalEdgeStyle;html=1;verticalAlign=bottom;endArrow=open;endSize=8;strokeColor=#ff0000;rounded=0;" parent="1" source="iSWgA_2Dmbg9d9rFps_H-20" edge="1">
          <mxGeometry relative="1" as="geometry">
            <mxPoint x="80" y="630" as="targetPoint" />
          </mxGeometry>
        </mxCell>
        <mxCell id="iSWgA_2Dmbg9d9rFps_H-22" value="Activate/Deactivate Light&amp;nbsp;" style="rounded=1;whiteSpace=wrap;html=1;arcSize=40;fontColor=#000000;fillColor=#ffffc0;strokeColor=#ff0000;" parent="1" vertex="1">
          <mxGeometry x="20" y="640" width="120" height="40" as="geometry" />
        </mxCell>
        <mxCell id="iSWgA_2Dmbg9d9rFps_H-23" value="" style="edgeStyle=orthogonalEdgeStyle;html=1;verticalAlign=bottom;endArrow=open;endSize=8;strokeColor=#ff0000;rounded=0;entryX=0;entryY=0.5;entryDx=0;entryDy=0;exitX=0;exitY=0.5;exitDx=0;exitDy=0;" parent="1" source="iSWgA_2Dmbg9d9rFps_H-22" target="iSWgA_2Dmbg9d9rFps_H-17" edge="1">
          <mxGeometry relative="1" as="geometry">
            <mxPoint x="10" y="430" as="targetPoint" />
            <mxPoint x="130" y="660" as="sourcePoint" />
            <Array as="points">
              <mxPoint x="-120" y="660" />
              <mxPoint x="-120" y="430" />
            </Array>
          </mxGeometry>
        </mxCell>
        <mxCell id="iSWgA_2Dmbg9d9rFps_H-24" value="" style="edgeStyle=orthogonalEdgeStyle;html=1;verticalAlign=bottom;endArrow=open;endSize=8;strokeColor=#ff0000;rounded=0;dashed=1;" parent="1" edge="1">
          <mxGeometry relative="1" as="geometry">
            <mxPoint x="79.88999999999999" y="740" as="targetPoint" />
            <mxPoint x="79.88999999999999" y="680" as="sourcePoint" />
          </mxGeometry>
        </mxCell>
        <mxCell id="iSWgA_2Dmbg9d9rFps_H-25" value="" style="ellipse;html=1;shape=endState;fillColor=#000000;strokeColor=#ff0000;" parent="1" vertex="1">
          <mxGeometry x="65" y="750" width="30" height="30" as="geometry" />
        </mxCell>
        <mxCell id="iSWgA_2Dmbg9d9rFps_H-26" value="End/Off" style="text;html=1;whiteSpace=wrap;strokeColor=none;fillColor=none;align=center;verticalAlign=middle;rounded=0;" parent="1" vertex="1">
          <mxGeometry x="50" y="790" width="60" height="30" as="geometry" />
        </mxCell>
        <mxCell id="iSWgA_2Dmbg9d9rFps_H-29" value="Main" style="text;align=center;fontStyle=1;verticalAlign=middle;spacingLeft=3;spacingRight=3;strokeColor=none;rotatable=0;points=[[0,0.5],[1,0.5]];portConstraint=eastwest;html=1;" parent="1" vertex="1">
          <mxGeometry x="-150" y="30" width="80" height="26" as="geometry" />
        </mxCell>
        <mxCell id="iSWgA_2Dmbg9d9rFps_H-30" value="" style="rounded=1;whiteSpace=wrap;html=1;" parent="1" vertex="1">
          <mxGeometry x="130" y="890" width="340" height="550" as="geometry" />
        </mxCell>
        <mxCell id="iSWgA_2Dmbg9d9rFps_H-31" value="Receive Trigger&amp;nbsp;" style="rounded=1;whiteSpace=wrap;html=1;" parent="1" vertex="1">
          <mxGeometry x="230" y="1050" width="120" height="60" as="geometry" />
        </mxCell>
        <mxCell id="iSWgA_2Dmbg9d9rFps_H-32" style="edgeStyle=orthogonalEdgeStyle;rounded=0;orthogonalLoop=1;jettySize=auto;html=1;exitX=0.5;exitY=1;exitDx=0;exitDy=0;entryX=0.5;entryY=0;entryDx=0;entryDy=0;" parent="1" source="iSWgA_2Dmbg9d9rFps_H-33" target="iSWgA_2Dmbg9d9rFps_H-44" edge="1">
          <mxGeometry relative="1" as="geometry" />
        </mxCell>
        <mxCell id="iSWgA_2Dmbg9d9rFps_H-33" value="Verify Timing Setting" style="rounded=1;whiteSpace=wrap;html=1;" parent="1" vertex="1">
          <mxGeometry x="230" y="1170" width="120" height="60" as="geometry" />
        </mxCell>
        <mxCell id="iSWgA_2Dmbg9d9rFps_H-34" style="edgeStyle=orthogonalEdgeStyle;rounded=0;orthogonalLoop=1;jettySize=auto;html=1;exitX=0.5;exitY=1;exitDx=0;exitDy=0;" parent="1" edge="1">
          <mxGeometry relative="1" as="geometry">
            <mxPoint x="350" y="1385" as="targetPoint" />
            <Array as="points">
              <mxPoint x="290" y="1375" />
              <mxPoint x="290" y="1375" />
            </Array>
            <mxPoint x="290" y="1330" as="sourcePoint" />
          </mxGeometry>
        </mxCell>
        <mxCell id="iSWgA_2Dmbg9d9rFps_H-37" value="" style="endArrow=classic;html=1;rounded=0;exitX=0.5;exitY=1;exitDx=0;exitDy=0;entryX=0.5;entryY=0;entryDx=0;entryDy=0;" parent="1" source="iSWgA_2Dmbg9d9rFps_H-31" target="iSWgA_2Dmbg9d9rFps_H-33" edge="1">
          <mxGeometry width="50" height="50" relative="1" as="geometry">
            <mxPoint x="200" y="1260" as="sourcePoint" />
            <mxPoint x="250" y="1210" as="targetPoint" />
          </mxGeometry>
        </mxCell>
        <mxCell id="iSWgA_2Dmbg9d9rFps_H-38" value="&lt;font style=&quot;font-size: 18px;&quot;&gt;Settings Check&lt;/font&gt;" style="text;html=1;whiteSpace=wrap;strokeColor=none;fillColor=none;align=center;verticalAlign=middle;rounded=0;" parent="1" vertex="1">
          <mxGeometry x="190" y="930" width="200" height="30" as="geometry" />
        </mxCell>
        <mxCell id="iSWgA_2Dmbg9d9rFps_H-40" value="send information to activate light" style="text;html=1;whiteSpace=wrap;strokeColor=none;fillColor=none;align=center;verticalAlign=middle;rounded=0;" parent="1" vertex="1">
          <mxGeometry x="350" y="1370" width="80" height="30" as="geometry" />
        </mxCell>
        <mxCell id="iSWgA_2Dmbg9d9rFps_H-41" style="edgeStyle=orthogonalEdgeStyle;rounded=0;orthogonalLoop=1;jettySize=auto;html=1;exitX=0.5;exitY=1;exitDx=0;exitDy=0;" parent="1" source="iSWgA_2Dmbg9d9rFps_H-42" edge="1">
          <mxGeometry relative="1" as="geometry">
            <mxPoint x="290" y="1049" as="targetPoint" />
          </mxGeometry>
        </mxCell>
        <mxCell id="iSWgA_2Dmbg9d9rFps_H-42" value="start" style="text;html=1;whiteSpace=wrap;strokeColor=none;fillColor=none;align=center;verticalAlign=middle;rounded=0;" parent="1" vertex="1">
          <mxGeometry x="260" y="972" width="60" height="30" as="geometry" />
        </mxCell>
        <mxCell id="iSWgA_2Dmbg9d9rFps_H-44" value="Verify Brightness Setting" style="rounded=1;whiteSpace=wrap;html=1;" parent="1" vertex="1">
          <mxGeometry x="230" y="1270" width="120" height="60" as="geometry" />
        </mxCell>
        <mxCell id="iSWgA_2Dmbg9d9rFps_H-46" value="" style="shape=waypoint;sketch=0;size=6;pointerEvents=1;points=[];fillColor=none;resizable=0;rotatable=0;perimeter=centerPerimeter;snapToPoint=1;" parent="1" vertex="1">
          <mxGeometry x="280" y="990" width="20" height="20" as="geometry" />
        </mxCell>
        <mxCell id="iSWgA_2Dmbg9d9rFps_H-48" value="" style="rounded=1;whiteSpace=wrap;html=1;" parent="1" vertex="1">
          <mxGeometry x="540" y="890" width="370" height="550" as="geometry" />
        </mxCell>
        <mxCell id="iSWgA_2Dmbg9d9rFps_H-49" value="Receive Settings Activation" style="rounded=1;whiteSpace=wrap;html=1;" parent="1" vertex="1">
          <mxGeometry x="590" y="1050" width="120" height="60" as="geometry" />
        </mxCell>
        <mxCell id="iSWgA_2Dmbg9d9rFps_H-50" style="edgeStyle=orthogonalEdgeStyle;rounded=0;orthogonalLoop=1;jettySize=auto;html=1;exitX=0.5;exitY=1;exitDx=0;exitDy=0;entryX=0.5;entryY=0;entryDx=0;entryDy=0;" parent="1" source="iSWgA_2Dmbg9d9rFps_H-51" target="iSWgA_2Dmbg9d9rFps_H-58" edge="1">
          <mxGeometry relative="1" as="geometry" />
        </mxCell>
        <mxCell id="iSWgA_2Dmbg9d9rFps_H-51" value="Power Light for (X) Time and (Y) Brightness" style="rounded=1;whiteSpace=wrap;html=1;" parent="1" vertex="1">
          <mxGeometry x="590" y="1170" width="120" height="60" as="geometry" />
        </mxCell>
        <mxCell id="iSWgA_2Dmbg9d9rFps_H-52" style="edgeStyle=orthogonalEdgeStyle;rounded=0;orthogonalLoop=1;jettySize=auto;html=1;exitX=0.5;exitY=1;exitDx=0;exitDy=0;" parent="1" edge="1">
          <mxGeometry relative="1" as="geometry">
            <mxPoint x="710" y="1385" as="targetPoint" />
            <Array as="points">
              <mxPoint x="650" y="1375" />
              <mxPoint x="650" y="1375" />
            </Array>
            <mxPoint x="650" y="1330" as="sourcePoint" />
          </mxGeometry>
        </mxCell>
        <mxCell id="iSWgA_2Dmbg9d9rFps_H-53" value="" style="endArrow=classic;html=1;rounded=0;exitX=0.5;exitY=1;exitDx=0;exitDy=0;entryX=0.5;entryY=0;entryDx=0;entryDy=0;" parent="1" source="iSWgA_2Dmbg9d9rFps_H-49" target="iSWgA_2Dmbg9d9rFps_H-51" edge="1">
          <mxGeometry width="50" height="50" relative="1" as="geometry">
            <mxPoint x="560" y="1260" as="sourcePoint" />
            <mxPoint x="610" y="1210" as="targetPoint" />
          </mxGeometry>
        </mxCell>
        <mxCell id="iSWgA_2Dmbg9d9rFps_H-54" value="&lt;font style=&quot;font-size: 18px;&quot;&gt;Light&lt;/font&gt;" style="text;html=1;whiteSpace=wrap;strokeColor=none;fillColor=none;align=center;verticalAlign=middle;rounded=0;" parent="1" vertex="1">
          <mxGeometry x="625" y="930" width="200" height="30" as="geometry" />
        </mxCell>
        <mxCell id="iSWgA_2Dmbg9d9rFps_H-55" value="Check for new activation" style="text;html=1;whiteSpace=wrap;strokeColor=none;fillColor=none;align=center;verticalAlign=middle;rounded=0;" parent="1" vertex="1">
          <mxGeometry x="710" y="1370" width="80" height="30" as="geometry" />
        </mxCell>
        <mxCell id="iSWgA_2Dmbg9d9rFps_H-56" style="edgeStyle=orthogonalEdgeStyle;rounded=0;orthogonalLoop=1;jettySize=auto;html=1;exitX=0.5;exitY=1;exitDx=0;exitDy=0;" parent="1" source="iSWgA_2Dmbg9d9rFps_H-57" edge="1">
          <mxGeometry relative="1" as="geometry">
            <mxPoint x="650" y="1049" as="targetPoint" />
          </mxGeometry>
        </mxCell>
        <mxCell id="iSWgA_2Dmbg9d9rFps_H-57" value="start" style="text;html=1;whiteSpace=wrap;strokeColor=none;fillColor=none;align=center;verticalAlign=middle;rounded=0;" parent="1" vertex="1">
          <mxGeometry x="620" y="972" width="60" height="30" as="geometry" />
        </mxCell>
        <mxCell id="iSWgA_2Dmbg9d9rFps_H-58" value="Power Off light" style="rounded=1;whiteSpace=wrap;html=1;" parent="1" vertex="1">
          <mxGeometry x="590" y="1270" width="120" height="60" as="geometry" />
        </mxCell>
        <mxCell id="iSWgA_2Dmbg9d9rFps_H-59" value="" style="shape=waypoint;sketch=0;size=6;pointerEvents=1;points=[];fillColor=none;resizable=0;rotatable=0;perimeter=centerPerimeter;snapToPoint=1;" parent="1" vertex="1">
          <mxGeometry x="640" y="990" width="20" height="20" as="geometry" />
        </mxCell>
        <mxCell id="iSWgA_2Dmbg9d9rFps_H-67" value="" style="edgeStyle=orthogonalEdgeStyle;rounded=0;orthogonalLoop=1;jettySize=auto;html=1;" parent="1" source="iSWgA_2Dmbg9d9rFps_H-62" target="iSWgA_2Dmbg9d9rFps_H-66" edge="1">
          <mxGeometry relative="1" as="geometry" />
        </mxCell>
        <mxCell id="iSWgA_2Dmbg9d9rFps_H-62" value="Override&lt;div&gt;Light Button&lt;div&gt;Pressed&lt;/div&gt;&lt;/div&gt;" style="rhombus;whiteSpace=wrap;html=1;" parent="1" vertex="1">
          <mxGeometry x="745" y="1030" width="110" height="100" as="geometry" />
        </mxCell>
        <mxCell id="iSWgA_2Dmbg9d9rFps_H-68" style="edgeStyle=orthogonalEdgeStyle;rounded=0;orthogonalLoop=1;jettySize=auto;html=1;entryX=1;entryY=0.5;entryDx=0;entryDy=0;exitX=0.5;exitY=1;exitDx=0;exitDy=0;" parent="1" source="iSWgA_2Dmbg9d9rFps_H-66" target="iSWgA_2Dmbg9d9rFps_H-58" edge="1">
          <mxGeometry relative="1" as="geometry" />
        </mxCell>
        <mxCell id="iSWgA_2Dmbg9d9rFps_H-66" value="Light Stays on Until Button Pressed Again" style="rounded=1;whiteSpace=wrap;html=1;" parent="1" vertex="1">
          <mxGeometry x="740" y="1190" width="120" height="60" as="geometry" />
        </mxCell>
        <mxCell id="2uqQJsZ8Y4um9SNFq4Il-1" value="" style="rounded=1;whiteSpace=wrap;html=1;" parent="1" vertex="1">
          <mxGeometry x="-730" y="890" width="350" height="550" as="geometry" />
        </mxCell>
        <mxCell id="2uqQJsZ8Y4um9SNFq4Il-2" value="initialize" style="rounded=1;whiteSpace=wrap;html=1;" parent="1" vertex="1">
          <mxGeometry x="-620" y="990" width="120" height="60" as="geometry" />
        </mxCell>
        <mxCell id="2uqQJsZ8Y4um9SNFq4Il-3" style="edgeStyle=orthogonalEdgeStyle;rounded=0;orthogonalLoop=1;jettySize=auto;html=1;exitX=0.5;exitY=1;exitDx=0;exitDy=0;entryX=0.5;entryY=0;entryDx=0;entryDy=0;" parent="1" source="2uqQJsZ8Y4um9SNFq4Il-4" target="2uqQJsZ8Y4um9SNFq4Il-15" edge="1">
          <mxGeometry relative="1" as="geometry" />
        </mxCell>
        <mxCell id="2uqQJsZ8Y4um9SNFq4Il-4" value="idle" style="rounded=1;whiteSpace=wrap;html=1;" parent="1" vertex="1">
          <mxGeometry x="-620" y="1100" width="120" height="60" as="geometry" />
        </mxCell>
        <mxCell id="2uqQJsZ8Y4um9SNFq4Il-5" style="edgeStyle=orthogonalEdgeStyle;rounded=0;orthogonalLoop=1;jettySize=auto;html=1;exitX=0.5;exitY=1;exitDx=0;exitDy=0;" parent="1" edge="1">
          <mxGeometry relative="1" as="geometry">
            <mxPoint x="-500" y="1400" as="targetPoint" />
            <Array as="points">
              <mxPoint x="-560" y="1390" />
              <mxPoint x="-560" y="1390" />
            </Array>
            <mxPoint x="-560" y="1320" as="sourcePoint" />
          </mxGeometry>
        </mxCell>
        <mxCell id="2uqQJsZ8Y4um9SNFq4Il-6" style="edgeStyle=orthogonalEdgeStyle;rounded=0;orthogonalLoop=1;jettySize=auto;html=1;exitX=0;exitY=0.5;exitDx=0;exitDy=0;entryX=0;entryY=0.5;entryDx=0;entryDy=0;" parent="1" source="2uqQJsZ8Y4um9SNFq4Il-7" target="2uqQJsZ8Y4um9SNFq4Il-4" edge="1">
          <mxGeometry relative="1" as="geometry" />
        </mxCell>
        <mxCell id="2uqQJsZ8Y4um9SNFq4Il-7" value="motion detected" style="rounded=1;whiteSpace=wrap;html=1;" parent="1" vertex="1">
          <mxGeometry x="-620" y="1310" width="120" height="60" as="geometry" />
        </mxCell>
        <mxCell id="2uqQJsZ8Y4um9SNFq4Il-8" value="" style="endArrow=classic;html=1;rounded=0;exitX=0.5;exitY=1;exitDx=0;exitDy=0;entryX=0.5;entryY=0;entryDx=0;entryDy=0;" parent="1" source="2uqQJsZ8Y4um9SNFq4Il-2" target="2uqQJsZ8Y4um9SNFq4Il-4" edge="1">
          <mxGeometry width="50" height="50" relative="1" as="geometry">
            <mxPoint x="-650" y="1210" as="sourcePoint" />
            <mxPoint x="-600" y="1160" as="targetPoint" />
          </mxGeometry>
        </mxCell>
        <mxCell id="2uqQJsZ8Y4um9SNFq4Il-9" value="&lt;font style=&quot;font-size: 18px;&quot;&gt;Motion board&lt;/font&gt;" style="text;html=1;whiteSpace=wrap;strokeColor=none;fillColor=none;align=center;verticalAlign=middle;rounded=0;" parent="1" vertex="1">
          <mxGeometry x="-660" y="900" width="200" height="30" as="geometry" />
        </mxCell>
        <mxCell id="2uqQJsZ8Y4um9SNFq4Il-10" value="clear all data" style="text;html=1;whiteSpace=wrap;strokeColor=none;fillColor=none;align=center;verticalAlign=middle;rounded=0;" parent="1" vertex="1">
          <mxGeometry x="-510" y="1060" width="60" height="30" as="geometry" />
        </mxCell>
        <mxCell id="2uqQJsZ8Y4um9SNFq4Il-11" value="send signal to input/output board" style="text;html=1;whiteSpace=wrap;strokeColor=none;fillColor=none;align=center;verticalAlign=middle;rounded=0;" parent="1" vertex="1">
          <mxGeometry x="-500" y="1380" width="80" height="30" as="geometry" />
        </mxCell>
        <mxCell id="2uqQJsZ8Y4um9SNFq4Il-12" style="edgeStyle=orthogonalEdgeStyle;rounded=0;orthogonalLoop=1;jettySize=auto;html=1;exitX=0.5;exitY=1;exitDx=0;exitDy=0;" parent="1" source="2uqQJsZ8Y4um9SNFq4Il-13" edge="1">
          <mxGeometry relative="1" as="geometry">
            <mxPoint x="-560" y="999" as="targetPoint" />
          </mxGeometry>
        </mxCell>
        <mxCell id="2uqQJsZ8Y4um9SNFq4Il-13" value="start" style="text;html=1;whiteSpace=wrap;strokeColor=none;fillColor=none;align=center;verticalAlign=middle;rounded=0;" parent="1" vertex="1">
          <mxGeometry x="-590" y="922" width="60" height="30" as="geometry" />
        </mxCell>
        <mxCell id="2uqQJsZ8Y4um9SNFq4Il-14" style="edgeStyle=orthogonalEdgeStyle;rounded=0;orthogonalLoop=1;jettySize=auto;html=1;exitX=0.5;exitY=1;exitDx=0;exitDy=0;entryX=0.5;entryY=0;entryDx=0;entryDy=0;" parent="1" source="2uqQJsZ8Y4um9SNFq4Il-15" target="2uqQJsZ8Y4um9SNFq4Il-7" edge="1">
          <mxGeometry relative="1" as="geometry" />
        </mxCell>
        <mxCell id="2uqQJsZ8Y4um9SNFq4Il-15" value="collect environmental data" style="rounded=1;whiteSpace=wrap;html=1;" parent="1" vertex="1">
          <mxGeometry x="-620" y="1200" width="120" height="60" as="geometry" />
        </mxCell>
        <mxCell id="2uqQJsZ8Y4um9SNFq4Il-16" value="monitor motion" style="text;html=1;whiteSpace=wrap;strokeColor=none;fillColor=none;align=center;verticalAlign=middle;rounded=0;" parent="1" vertex="1">
          <mxGeometry x="-500" y="1160" width="60" height="30" as="geometry" />
        </mxCell>
        <mxCell id="2uqQJsZ8Y4um9SNFq4Il-17" value="" style="shape=waypoint;sketch=0;size=6;pointerEvents=1;points=[];fillColor=none;resizable=0;rotatable=0;perimeter=centerPerimeter;snapToPoint=1;" parent="1" vertex="1">
          <mxGeometry x="-570" y="940" width="20" height="20" as="geometry" />
        </mxCell>
        <mxCell id="2uqQJsZ8Y4um9SNFq4Il-18" value="continuous loop" style="text;html=1;whiteSpace=wrap;strokeColor=none;fillColor=none;align=center;verticalAlign=middle;rounded=0;" parent="1" vertex="1">
          <mxGeometry x="-710" y="1230" width="60" height="30" as="geometry" />
        </mxCell>
      </root>
    </mxGraphModel>
  </diagram>
</mxfile>
